<?xml version="1.0" encoding="UTF-8" standalone="no"?>
<!-- Created with Inkscape (http://www.inkscape.org/) -->

<svg
   version="1.1"
   id="svg2"
   xml:space="preserve"
   width="380"
   height="132"
   viewBox="0 0 380 132"
   sodipodi:docname="dataport_logo.eps"
   xmlns:inkscape="http://www.inkscape.org/namespaces/inkscape"
   xmlns:sodipodi="http://sodipodi.sourceforge.net/DTD/sodipodi-0.dtd"
   xmlns="http://www.w3.org/2000/svg"
   xmlns:svg="http://www.w3.org/2000/svg"><defs
     id="defs6" /><sodipodi:namedview
     id="namedview4"
     pagecolor="#ffffff"
     bordercolor="#666666"
     borderopacity="1.0"
     inkscape:pageshadow="2"
     inkscape:pageopacity="0.0"
     inkscape:pagecheckerboard="0" /><g
     id="g8"
     inkscape:groupmode="layer"
     inkscape:label="ink_ext_XXXXXX"
     transform="matrix(1.3333333,0,0,-1.3333333,0,132)"><g
       id="g10"
       transform="scale(0.1)"><path
         d="m 2311.84,717.004 c 12.27,0 18.88,-6.613 18.88,-18.875 v -13.84 c 0,-12.262 -6.61,-18.879 -18.88,-18.879 h -297.18 c -12.26,0 -18.87,6.617 -18.87,18.879 v 13.84 c 0,12.262 6.61,18.875 18.87,18.875 h 297.18"
         style="fill:#b0131d;fill-opacity:1;fill-rule:nonzero;stroke:none"
         id="path12" /><path
         d="m 2311.84,849.461 c 12.27,0 18.88,-6.613 18.88,-18.875 v -13.84 c 0,-12.262 -6.61,-18.875 -18.88,-18.875 h -297.18 c -12.26,0 -18.87,6.613 -18.87,18.875 v 13.84 c 0,12.262 6.61,18.875 18.87,18.875 h 297.18"
         style="fill:#b0131d;fill-opacity:1;fill-rule:nonzero;stroke:none"
         id="path14" /><path
         d="m 2311.84,981.918 c 12.27,0 18.88,-6.613 18.88,-18.875 v -13.84 c 0,-12.262 -6.61,-18.875 -18.88,-18.875 h -297.18 c -12.26,0 -18.87,6.613 -18.87,18.875 v 13.84 c 0,12.262 6.61,18.875 18.87,18.875 h 297.18"
         style="fill:#b0131d;fill-opacity:1;fill-rule:nonzero;stroke:none"
         id="path16" /><path
         d="m 2311.84,57.9414 c 12.27,0 18.88,-6.6172 18.88,-18.8789 V 25.2227 c 0,-12.2618 -6.61,-18.87504 -18.88,-18.87504 h -297.18 c -12.26,0 -18.87,6.61324 -18.87,18.87504 v 13.8398 c 0,12.2617 6.61,18.8789 18.87,18.8789 h 297.18"
         style="fill:#b0131d;fill-opacity:1;fill-rule:nonzero;stroke:none"
         id="path18" /><path
         d="m 2311.84,190.398 c 12.27,0 18.88,-6.617 18.88,-18.875 V 157.68 c 0,-12.258 -6.61,-18.875 -18.88,-18.875 h -297.18 c -12.26,0 -18.87,6.617 -18.87,18.875 v 13.843 c 0,12.258 6.61,18.875 18.87,18.875 h 297.18"
         style="fill:#b0131d;fill-opacity:1;fill-rule:nonzero;stroke:none"
         id="path20" /><path
         d="m 2608.46,508.098 h -89.91 c -17.98,0 -26.51,-8.535 -26.51,-26.512 V 296.113 l -60.77,0.008 v 186.504 c 0,51.938 25.12,77.063 77.06,77.063 h 100.14 l -0.01,-51.59"
         style="fill:#545f6a;fill-opacity:1;fill-rule:nonzero;stroke:none"
         id="path22" /><path
         d="m 1048.12,347.711 0.01,-51.59 h -89.497 c -51.938,0 -77.063,25.125 -77.063,77.063 v 243.707 l 60.395,0.004 v -57.207 h 98.865 v -51.59 H 941.965 V 374.223 c 0,-17.977 8.535,-26.512 26.508,-26.512 h 79.647"
         style="fill:#545f6a;fill-opacity:1;fill-rule:nonzero;stroke:none"
         id="path24" /><path
         d="m 2842.54,347.711 v -51.59 h -89.49 c -51.94,0 -77.06,25.125 -77.06,77.063 v 243.707 l 60.39,0.004 v -57.207 h 98.86 v -51.59 h -98.86 V 374.223 c 0,-17.977 8.53,-26.512 26.51,-26.512 h 79.65"
         style="fill:#545f6a;fill-opacity:1;fill-rule:nonzero;stroke:none"
         id="path26" /><path
         d="m 1981.91,482.625 c 0,51.938 25.12,77.063 77.06,77.063 h 208.57 c 51.93,0 77.06,-25.125 77.06,-77.063 V 373.184 c 0,-51.938 -25.13,-77.063 -77.06,-77.063 h -208.57 c -51.94,0 -77.06,25.125 -77.06,77.063 z m 86.9,25.473 c -17.97,0 -26.51,-8.535 -26.51,-26.512 V 374.223 c 0,-17.977 8.54,-26.512 26.51,-26.512 h 188.89 c 17.97,0 26.51,8.535 26.51,26.512 v 107.363 c 0,17.977 -8.54,26.512 -26.51,26.512 h -188.89"
         style="fill:#545f6a;fill-opacity:1;fill-rule:evenodd;stroke:none"
         id="path28" /><path
         d="m 497.977,373.273 c 0,-17.976 8.535,-26.511 26.511,-26.511 h 208.043 v 66.843 H 524.488 c -17.976,0 -26.511,-8.535 -26.511,-26.511 z m 16.668,-77.152 c -51.934,0 -77.059,25.125 -77.059,77.063 v 14 c 0,51.937 25.125,77.062 77.059,77.062 h 217.886 v 18.289 c 0,17.977 -8.535,26.512 -26.508,26.512 H 495.379 l -0.004,50.641 h 220.488 c 51.938,0 77.063,-25.125 77.063,-77.063 V 296.121 H 514.645"
         style="fill:#545f6a;fill-opacity:1;fill-rule:evenodd;stroke:none"
         id="path30" /><path
         d="m 1159.07,373.273 c 0,-17.976 8.54,-26.511 26.51,-26.511 h 208.05 v 66.843 h -208.05 c -17.97,0 -26.51,-8.535 -26.51,-26.511 z m 16.67,-77.152 c -51.94,0 -77.06,25.125 -77.06,77.063 v 14 c 0,51.937 25.12,77.062 77.06,77.062 h 217.89 v 18.289 c 0,17.977 -8.54,26.512 -26.51,26.512 h -210.64 l -0.01,50.641 h 220.49 c 51.93,0 77.06,-25.125 77.06,-77.063 V 296.121 h -278.28"
         style="fill:#545f6a;fill-opacity:1;fill-rule:evenodd;stroke:none"
         id="path32" /><path
         d="m 302.004,559.691 v 95.34 l 60.391,-0.008 V 296.121 H 84.9727 c -51.9336,0 -77.05864,25.125 -77.05864,77.063 v 109.441 c 0,51.938 25.12504,77.066 77.05864,77.066 z m 0,-211.976 V 508.098 H 94.8164 c -17.9766,0 -26.5117,-8.535 -26.5117,-26.512 V 374.227 c 0,-17.981 8.5351,-26.512 26.5117,-26.512 H 302.004"
         style="fill:#545f6a;fill-opacity:1;fill-rule:evenodd;stroke:none"
         id="path34" /><path
         d="m 1606.47,296.121 v -99.82 l -60.4,0.008 v 363.382 l 277.43,-0.003 c 51.93,0 77.06,-25.125 77.06,-77.063 V 373.184 c 0,-51.938 -25.13,-77.063 -77.06,-77.063 z m 0,211.977 V 347.711 h 207.19 c 17.97,0 26.5,8.535 26.5,26.512 v 107.363 c 0,17.977 -8.53,26.512 -26.5,26.512 h -207.19"
         style="fill:#545f6a;fill-opacity:1;fill-rule:evenodd;stroke:none"
         id="path36" /></g></g></svg>
